<?xml version="1.0" encoding="UTF-8" standalone="no"?>
<svg
   version="1.1"
   width="1320"
   height="561"
   id="svg264"
   sodipodi:docname="er.svg"
   inkscape:version="1.1.1 (3bf5ae0d25, 2021-09-20)"
   xmlns:inkscape="http://www.inkscape.org/namespaces/inkscape"
   xmlns:sodipodi="http://sodipodi.sourceforge.net/DTD/sodipodi-0.dtd"
   xmlns="http://www.w3.org/2000/svg"
   xmlns:svg="http://www.w3.org/2000/svg">
  <sodipodi:namedview
     id="namedview266"
     pagecolor="#ffffff"
     bordercolor="#666666"
     borderopacity="1.0"
     inkscape:pageshadow="2"
     inkscape:pageopacity="1"
     inkscape:pagecheckerboard="0"
     showgrid="false"
     inkscape:zoom="1.2022727"
     inkscape:cx="585.55766"
     inkscape:cy="141.81474"
     inkscape:window-width="3840"
     inkscape:window-height="1977"
     inkscape:window-x="1920"
     inkscape:window-y="40"
     inkscape:window-maximized="1"
     inkscape:current-layer="svg264" />
  <defs
     id="dmw_defs">
    <svg
       id="fk_sym"
       viewBox="0 0 48.665 48.665"
       style="enable-background:new 0 0 48.665 48.665;"
       version="1.1">
      <g
         id="g4">
        <path
           d="M40.332,31.592c-2.377,0-4.515,1-6.033,2.598l-17.737-8.686c0.061-0.406,0.103-0.82,0.103-1.246    c0-0.414-0.04-0.818-0.098-1.215l17.711-8.589c1.519,1.609,3.666,2.619,6.054,2.619c4.603,0,8.333-3.731,8.333-8.333    c0-4.603-3.73-8.333-8.333-8.333s-8.333,3.73-8.333,8.333c0,0.414,0.04,0.817,0.098,1.215l-17.709,8.589    c-1.519-1.609-3.666-2.619-6.054-2.619C3.73,15.925,0,19.656,0,24.258c0,4.603,3.73,8.333,8.333,8.333    c2.377,0,4.515-1,6.033-2.596l17.736,8.685c-0.062,0.406-0.104,0.82-0.104,1.245c0,4.604,3.73,8.333,8.333,8.333    s8.333-3.729,8.333-8.333C48.665,35.322,44.935,31.592,40.332,31.592z"
           fill="#13bf3b"
           id="path2" />
      </g>
    </svg>
    <svg
       id="pk_sym"
       viewBox="0 0 480.509 480.509"
       style="enable-background:new 0 0 480.509 480.509;"
       version="1.1">
      <g
         id="g9">
        <path
           d="M418.119,331.046c4.094,4.374,7.766,8.186,10.996,11.416c3.237,3.238,6.714,6.376,10.427,9.422   c3.71,3.042,6.427,4.568,8.135,4.568c3.241,0,9.517-4.661,18.843-13.99c9.328-9.321,13.989-15.604,13.989-18.842   c0-1.523-2.714-5.421-8.138-11.704c-5.421-6.276-12.364-13.702-20.838-22.271c-8.473-8.565-16.703-16.744-24.694-24.55   c-8.001-7.81-15.8-15.373-23.417-22.703c-7.611-7.327-11.992-11.56-13.135-12.703c-1.902-1.902-4.093-2.853-6.563-2.853   c-3.237,0-9.521,4.661-18.843,13.988c-9.328,9.322-13.989,15.605-13.989,18.843c0,1.711,1.522,4.421,4.568,8.138   c3.046,3.71,6.188,7.187,9.421,10.424c3.23,3.23,7.047,6.899,11.42,10.992c4.377,4.093,6.848,6.423,7.423,6.995l-27.408,27.404   L254.954,222.268c24.94-33.498,37.408-68.236,37.408-104.211c0-31.024-9.761-56.293-29.263-75.801   c-19.512-19.511-44.778-29.265-75.805-29.265c-30.454,0-60.244,9.042-89.363,27.119c-29.121,18.083-52.727,41.686-70.808,70.808   C9.042,140.038,0,169.828,0,200.28c0,31.029,9.753,56.286,29.265,75.803c19.511,19.517,44.777,29.27,75.801,29.27   c35.976,0,70.71-12.467,104.212-37.407l191.574,191.579c5.332,5.328,11.796,7.994,19.417,7.994c7.991,0,15.704-3.72,23.12-11.14   c7.426-7.426,11.143-15.129,11.143-23.127c0-7.617-2.666-14.092-7.994-19.417l-62.811-62.811l27.405-27.404   C411.699,324.195,414.033,326.666,418.119,331.046z M221.556,161.458c-10.656,10.657-23.601,15.987-38.828,15.987   c-7.996,0-15.896-1.812-23.7-5.43c3.617,7.808,5.426,15.706,5.426,23.7c0,15.229-5.327,28.171-15.987,38.828   c-10.66,10.655-23.606,15.986-38.831,15.986c-15.227,0-28.168-5.325-38.828-15.986c-10.657-10.657-15.987-23.599-15.987-38.828   c0-15.227,5.327-28.171,15.987-38.828C81.464,146.23,94.409,140.9,109.636,140.9c7.992,0,15.893,1.809,23.695,5.424   c-3.616-7.804-5.424-15.706-5.424-23.699c0-15.227,5.327-28.171,15.987-38.828c10.66-10.657,23.604-15.987,38.831-15.987   c15.227,0,28.171,5.327,38.828,15.987c10.657,10.66,15.987,23.601,15.987,38.828C237.539,137.852,232.209,150.797,221.556,161.458z   "
           fill="#ff8345"
           id="path7" />
      </g>
    </svg>
    <svg
       id="uk_sym"
       viewBox="0 0 490 490"
       style="enable-background:new 0 0 490 490;"
       version="1.1">
      <g
         id="g16">
        <polygon
           points="236.99,11.41 0,246.348 236.99,478.678 236.99,350.609 129.864,245 236.99,139.391  "
           fill="#0064fb"
           id="polygon12" />
        <polygon
           points="253.01,478.59 490,243.651 253.01,11.322 253.01,139.391 360.136,245 253.01,350.609  "
           fill="#0064fb"
           id="polygon14" />
      </g>
    </svg>
    <svg
       id="link_sym"
       viewBox="0 0 1000 900"
       style="enable-background:new 0 0 1000 900;"
       version="1.1">
      <g
         id="g21">
        <path
           fill="black"
           d="M660.224 422.656c6.976 16.192-0.512 35.008-16.768 42.048-16.128 6.976-34.944-0.448-41.984-16.768-8.448-19.776-20.736-37.696-36.224-53.248-64.64-64.64-177.344-64.64-241.92 0l-145.216 145.28c-66.688 66.688-66.688 175.232 0 241.984 66.688 66.688 175.104 66.752 241.92 0l92.8-92.864c12.48-12.48 32.768-12.48 45.248 0s12.48 32.768 0 45.248l-92.8 92.864c-91.648 91.648-240.832 91.52-332.416 0-91.712-91.648-91.712-240.832 0-332.48l145.216-145.28c44.352-44.416 103.424-68.864 166.272-68.864s121.792 24.448 166.208 68.864c21.248 21.312 38.016 45.952 49.664 73.216zM891.136 401.344l-145.216 145.216c-88.768 88.832-243.712 88.832-332.416 0-21.312-21.312-38.080-45.952-49.728-73.216-7.040-16.256 0.448-35.072 16.704-42.048 16.064-6.784 35.008 0.512 41.984 16.768 8.512 19.776 20.8 37.696 36.288 53.248 64.64 64.64 177.344 64.64 241.92 0l145.216-145.216c66.688-66.688 66.688-175.232 0-241.984-66.752-66.624-175.168-66.688-241.92 0l-92.8 92.864c-12.48 12.48-32.768 12.48-45.248 0s-12.48-32.768 0-45.248l92.8-92.864c45.824-45.824 105.984-68.736 166.208-68.736s120.448 22.912 166.272 68.736c91.584 91.648 91.584 240.768-0.064 332.48z"
           id="path19" />
      </g>
    </svg>
    <clipPath
       clipPathUnits="userSpaceOnUse"
       id="clipPath5_0_">
      <rect
         x="0"
         y="0"
         width="170"
         height="110"
         id="rect24" />
    </clipPath>
    <clipPath
       clipPathUnits="userSpaceOnUse"
       id="clipPath4_0_">
      <rect
         x="0"
         y="0"
         width="170"
         height="110"
         id="rect27" />
    </clipPath>
    <clipPath
       clipPathUnits="userSpaceOnUse"
       id="clipPath6_0_">
      <rect
         x="0"
         y="0"
         width="170"
         height="110"
         id="rect30" />
    </clipPath>
    <clipPath
       clipPathUnits="userSpaceOnUse"
       id="clipPath3_0_">
      <rect
         x="0"
         y="0"
         width="170"
         height="110"
         id="rect33" />
    </clipPath>
    <clipPath
       clipPathUnits="userSpaceOnUse"
       id="clipPath1_0_">
      <rect
         x="0"
         y="0"
         width="170"
         height="110"
         id="rect36" />
    </clipPath>
    <clipPath
       clipPathUnits="userSpaceOnUse"
       id="clipPath2_0_">
      <rect
         x="0"
         y="0"
         width="170"
         height="141"
         id="rect39" />
    </clipPath>
    <clipPath
       clipPathUnits="userSpaceOnUse"
       id="clipPath9_0__C">
      <rect
         x="0"
         y="0"
         width="74"
         height="30"
         id="rect42" />
    </clipPath>
  </defs>
  <g
     stroke-linecap="butt"
     id="g52">
    <path
       stroke="rgb(0,0,0)"
       fill="none"
       stroke-opacity="1.0"
       stroke-dasharray="8,8"
       stroke-width="1"
       d="M970 145 L1055 145"
       id="path46" />
    <path
       stroke="rgb(0,0,0)"
       fill="none"
       stroke-opacity="1.0"
       stroke-width="1"
       d="M1140 145 L1055 145"
       id="path48" />
    <path
       stroke-dasharray="none"
       d="M1140.0 151.0 L1128.0 145.0 L1140.0 139.0"
       fill="white"
       stroke-width="1"
       stroke-opacity="1.0"
       stroke="rgb(0,0,0)"
       id="path50" />
  </g>
  <g
     id="g56">
    <text
       x="981"
       y="126"
       fill="rgb(0,0,0)"
       fill-opacity="1.0"
       font-size="10"
       stroke="none"
       id="text54">
 departs at
</text>
  </g>
  <g
     id="g60">
    <text
       x="1070"
       y="159"
       fill="rgb(0,0,0)"
       fill-opacity="1.0"
       font-size="10"
       stroke="none"
       id="text58">
 follows
</text>
  </g>
  <g
     stroke-linecap="butt"
     id="g68">
    <path
       stroke="rgb(0,0,0)"
       fill="none"
       stroke-opacity="1.0"
       stroke-dasharray="8,8"
       stroke-width="1"
       d="M660 145 L730 145"
       id="path62" />
    <path
       stroke="rgb(0,0,0)"
       fill="none"
       stroke-opacity="1.0"
       stroke-width="1"
       d="M800 145 L730 145"
       id="path64" />
    <path
       stroke-dasharray="none"
       d="M800.0 151.0 L788.0 145.0 L800.0 139.0"
       fill="white"
       stroke-width="1"
       stroke-opacity="1.0"
       stroke="rgb(0,0,0)"
       id="path66" />
  </g>
  <g
     id="g72">
    <text
       x="671"
       y="126"
       fill="rgb(0,0,0)"
       fill-opacity="1.0"
       font-size="10"
       stroke="none"
       id="text70">
 follows
</text>
  </g>
  <g
     id="g76">
    <text
       x="730"
       y="159"
       fill="rgb(0,0,0)"
       fill-opacity="1.0"
       font-size="10"
       stroke="none"
       id="text74">
 belongs to
</text>
  </g>
  <g
     stroke-linecap="butt"
     id="g84">
    <path
       stroke="rgb(0,0,0)"
       fill="none"
       stroke-opacity="1.0"
       stroke-dasharray="8,8"
       stroke-width="1"
       d="M880 420 L880 200"
       id="path78" />
    <path
       stroke-dasharray="none"
       d="M874.0 420.0 L880.0 408.0 L886.0 420.0"
       fill="white"
       stroke-width="1"
       stroke-opacity="1.0"
       stroke="rgb(0,0,0)"
       id="path80" />
    <path
       stroke-dasharray="none"
       d="M886.0 200.0 L880.0 212.0 L874.0 200.0"
       fill="white"
       stroke-width="1"
       stroke-opacity="1.0"
       stroke="rgb(0,0,0)"
       id="path82" />
  </g>
  <g
     fill="rgb(255,153,102)"
     stroke="rgb(0,0,0)"
     fill-opacity="1.0"
     stroke-opacity="1.0"
     clip-path="url(#clipPath9_0__C)"
     transform="translate(843,295)"
     id="g92">
    <rect
       x="0"
       y="0"
       width="73"
       height="29"
       rx="20"
       ry="20"
       id="rect86" />
    <text
       x="7"
       y="18"
       fill="rgb(255,0,0)"
       fill-opacity="1.0"
       font-size="10"
       stroke="none"
       id="text88">
o
</text>
    <text
       x="15"
       y="18"
       fill="rgb(0,0,0)"
       fill-opacity="1.0"
       font-size="10"
       stroke="none"
       id="text90">
travel_time
</text>
  </g>
  <g
     id="g96">
    <text
       x="881"
       y="395"
       fill="rgb(0,0,0)"
       fill-opacity="1.0"
       font-size="10"
       stroke="none"
       id="text94" />
  </g>
  <g
     id="g100">
    <text
       x="881"
       y="247"
       fill="rgb(0,0,0)"
       fill-opacity="1.0"
       font-size="10"
       stroke="none"
       id="text98">
 stops at
</text>
  </g>
  <g
     stroke-linecap="butt"
     id="g108">
    <path
       stroke="rgb(0,0,0)"
       fill="none"
       stroke-opacity="1.0"
       stroke-dasharray="8,8"
       stroke-width="1"
       d="M1230 420 L1230 310"
       id="path102" />
    <path
       stroke="rgb(0,0,0)"
       fill="none"
       stroke-opacity="1.0"
       stroke-width="1"
       d="M1230 200 L1230 310"
       id="path104" />
    <path
       stroke-dasharray="none"
       d="M1236.0 200.0 L1230.0 212.0 L1224.0 200.0"
       fill="white"
       stroke-width="1"
       stroke-opacity="1.0"
       stroke="rgb(0,0,0)"
       id="path106" />
  </g>
  <g
     id="g112">
    <text
       x="1231"
       y="395"
       fill="rgb(0,0,0)"
       fill-opacity="1.0"
       font-size="10"
       stroke="none"
       id="text110" />
  </g>
  <g
     id="g116">
    <text
       x="1231"
       y="247"
       fill="rgb(0,0,0)"
       fill-opacity="1.0"
       font-size="10"
       stroke="none"
       id="text114">
 operates on
</text>
  </g>
  <g
     stroke-linecap="butt"
     id="g124">
    <path
       stroke="rgb(0,0,0)"
       fill="none"
       stroke-opacity="1.0"
       stroke-dasharray="8,8"
       stroke-width="1"
       d="M250 145 L370 145"
       id="path118" />
    <path
       stroke="rgb(0,0,0)"
       fill="none"
       stroke-opacity="1.0"
       stroke-width="1"
       d="M490 145 L370 145"
       id="path120" />
    <path
       stroke-dasharray="none"
       d="M490.0 151.0 L478.0 145.0 L490.0 139.0"
       fill="white"
       stroke-width="1"
       stroke-opacity="1.0"
       stroke="rgb(0,0,0)"
       id="path122" />
  </g>
  <g
     id="g128">
    <text
       x="261"
       y="126"
       fill="rgb(0,0,0)"
       fill-opacity="1.0"
       font-size="10"
       stroke="none"
       id="text126">
 operates
</text>
  </g>
  <g
     id="g132">
    <text
       x="401"
       y="159"
       fill="rgb(0,0,0)"
       fill-opacity="1.0"
       font-size="10"
       stroke="none"
       id="text130">
 is operated by
</text>
  </g>
  <g
     fill="rgb(164,225,255)"
     stroke="rgb(0,0,255)"
     fill-opacity="1.0"
     stroke-opacity="1.0"
     clip-path="url(#clipPath2_0_)"
     transform="translate(1150,420)"
     id="g173">
    <rect
       x="0"
       y="0"
       width="169"
       height="140"
       rx="20"
       ry="20"
       id="rect134" />
    <text
       id="E2E62D2D-1F1B6D24A2A1"
       x="60"
       y="13"
       fill="rgb(0,0,255)"
       font-weight="bold"
       fill-opacity="1.0"
       font-size="10"
       stroke="none">
Calendar
</text>
    <text
       x="16"
       y="30"
       fill="rgb(255,0,0)"
       fill-opacity="1.0"
       font-size="10"
       stroke="none"
       id="text137">
*
</text>
    <text
       x="27"
       y="30"
       fill="rgb(0,0,0)"
       fill-opacity="1.0"
       font-size="10"
       stroke="none"
       id="text139">
start
</text>
    <text
       x="16"
       y="43"
       fill="rgb(255,0,0)"
       fill-opacity="1.0"
       font-size="10"
       stroke="none"
       id="text141">
o
</text>
    <text
       x="27"
       y="43"
       fill="rgb(0,0,0)"
       fill-opacity="1.0"
       font-size="10"
       stroke="none"
       id="text143">
end
</text>
    <text
       x="16"
       y="56"
       fill="rgb(255,0,0)"
       fill-opacity="1.0"
       font-size="10"
       stroke="none"
       id="text145">
o
</text>
    <text
       x="27"
       y="56"
       fill="rgb(0,0,0)"
       fill-opacity="1.0"
       font-size="10"
       stroke="none"
       id="text147">
moday
</text>
    <text
       x="16"
       y="69"
       fill="rgb(255,0,0)"
       fill-opacity="1.0"
       font-size="10"
       stroke="none"
       id="text149">
o
</text>
    <text
       x="27"
       y="69"
       fill="rgb(0,0,0)"
       fill-opacity="1.0"
       font-size="10"
       stroke="none"
       id="text151">
tuesday
</text>
    <text
       x="16"
       y="82"
       fill="rgb(255,0,0)"
       fill-opacity="1.0"
       font-size="10"
       stroke="none"
       id="text153">
o
</text>
    <text
       x="27"
       y="82"
       fill="rgb(0,0,0)"
       fill-opacity="1.0"
       font-size="10"
       stroke="none"
       id="text155">
wednesday
</text>
    <text
       x="16"
       y="95"
       fill="rgb(255,0,0)"
       fill-opacity="1.0"
       font-size="10"
       stroke="none"
       id="text157">
o
</text>
    <text
       x="27"
       y="95"
       fill="rgb(0,0,0)"
       fill-opacity="1.0"
       font-size="10"
       stroke="none"
       id="text159">
thursday
</text>
    <text
       x="16"
       y="108"
       fill="rgb(255,0,0)"
       fill-opacity="1.0"
       font-size="10"
       stroke="none"
       id="text161">
o
</text>
    <text
       x="27"
       y="108"
       fill="rgb(0,0,0)"
       fill-opacity="1.0"
       font-size="10"
       stroke="none"
       id="text163">
friday
</text>
    <text
       x="16"
       y="121"
       fill="rgb(255,0,0)"
       fill-opacity="1.0"
       font-size="10"
       stroke="none"
       id="text165">
o
</text>
    <text
       x="27"
       y="121"
       fill="rgb(0,0,0)"
       fill-opacity="1.0"
       font-size="10"
       stroke="none"
       id="text167">
saturday
</text>
    <text
       x="16"
       y="134"
       fill="rgb(255,0,0)"
       fill-opacity="1.0"
       font-size="10"
       stroke="none"
       id="text169">
o
</text>
    <text
       x="27"
       y="134"
       fill="rgb(0,0,0)"
       fill-opacity="1.0"
       font-size="10"
       stroke="none"
       id="text171">
sunday
</text>
  </g>
  <g
     fill="rgb(164,225,255)"
     stroke="rgb(0,0,255)"
     fill-opacity="1.0"
     stroke-opacity="1.0"
     clip-path="url(#clipPath4_0_)"
     transform="translate(800,90)"
     id="g186">
    <rect
       x="0"
       y="0"
       width="169"
       height="109"
       rx="20"
       ry="20"
       id="rect175" />
    <text
       id="5BC037B6-0DB991D273C9"
       x="63"
       y="13"
       fill="rgb(0,0,255)"
       font-weight="bold"
       fill-opacity="1.0"
       font-size="10"
       stroke="none">
Pattern
</text>
    <text
       x="16"
       y="30"
       fill="rgb(255,0,0)"
       fill-opacity="1.0"
       font-size="10"
       stroke="none"
       id="text178">
o
</text>
    <text
       x="27"
       y="30"
       fill="rgb(0,0,0)"
       fill-opacity="1.0"
       font-size="10"
       stroke="none"
       id="text180">
headsign
</text>
    <text
       x="16"
       y="43"
       fill="rgb(255,0,0)"
       fill-opacity="1.0"
       font-size="10"
       stroke="none"
       id="text182">
o
</text>
    <text
       x="27"
       y="43"
       fill="rgb(0,0,0)"
       fill-opacity="1.0"
       font-size="10"
       stroke="none"
       id="text184">
direction
</text>
  </g>
  <g
     fill="rgb(164,225,255)"
     stroke="rgb(0,0,255)"
     fill-opacity="1.0"
     stroke-opacity="1.0"
     clip-path="url(#clipPath3_0_)"
     transform="translate(490,90)"
     id="g203">
    <rect
       x="0"
       y="0"
       width="169"
       height="109"
       rx="20"
       ry="20"
       id="rect188" />
    <text
       id="B326839A-06BF17192B22"
       x="73"
       y="13"
       fill="rgb(0,0,255)"
       font-weight="bold"
       fill-opacity="1.0"
       font-size="10"
       stroke="none">
Line
</text>
    <text
       x="16"
       y="30"
       fill="rgb(255,0,0)"
       fill-opacity="1.0"
       font-size="10"
       stroke="none"
       id="text191">
*
</text>
    <text
       x="27"
       y="30"
       fill="rgb(0,0,0)"
       fill-opacity="1.0"
       font-size="10"
       stroke="none"
       id="text193">
code
</text>
    <text
       x="16"
       y="43"
       fill="rgb(255,0,0)"
       fill-opacity="1.0"
       font-size="10"
       stroke="none"
       id="text195">
o
</text>
    <text
       x="27"
       y="43"
       fill="rgb(0,0,0)"
       fill-opacity="1.0"
       font-size="10"
       stroke="none"
       id="text197">
description
</text>
    <text
       x="16"
       y="56"
       fill="rgb(255,0,0)"
       fill-opacity="1.0"
       font-size="10"
       stroke="none"
       id="text199">
*
</text>
    <text
       x="27"
       y="56"
       fill="rgb(0,0,0)"
       fill-opacity="1.0"
       font-size="10"
       stroke="none"
       id="text201">
type
</text>
  </g>
  <g
     fill="rgb(164,225,255)"
     stroke="rgb(0,0,255)"
     fill-opacity="1.0"
     stroke-opacity="1.0"
     clip-path="url(#clipPath6_0_)"
     transform="translate(1140,90)"
     id="g216">
    <rect
       x="0"
       y="0"
       width="169"
       height="109"
       rx="20"
       ry="20"
       id="rect205" />
    <text
       id="6633D020-93ED2EBF5A16"
       x="74"
       y="13"
       fill="rgb(0,0,255)"
       font-weight="bold"
       fill-opacity="1.0"
       font-size="10"
       stroke="none">
Trip
</text>
    <text
       x="16"
       y="30"
       fill="rgb(255,0,0)"
       fill-opacity="1.0"
       font-size="10"
       stroke="none"
       id="text208">
*
</text>
    <text
       x="27"
       y="30"
       fill="rgb(0,0,0)"
       fill-opacity="1.0"
       font-size="10"
       stroke="none"
       id="text210">
departure
</text>
    <text
       x="16"
       y="43"
       fill="rgb(255,0,0)"
       fill-opacity="1.0"
       font-size="10"
       stroke="none"
       id="text212">
o
</text>
    <text
       x="27"
       y="43"
       fill="rgb(0,0,0)"
       fill-opacity="1.0"
       font-size="10"
       stroke="none"
       id="text214">
wheelchair_accessible
</text>
  </g>
  <g
     fill="rgb(164,225,255)"
     stroke="rgb(0,0,255)"
     fill-opacity="1.0"
     stroke-opacity="1.0"
     clip-path="url(#clipPath1_0_)"
     transform="translate(80,90)"
     id="g237">
    <rect
       x="0"
       y="0"
       width="169"
       height="109"
       rx="20"
       ry="20"
       id="rect218" />
    <text
       id="CFE03BF9-91D158144081"
       x="63"
       y="13"
       fill="rgb(0,0,255)"
       font-weight="bold"
       fill-opacity="1.0"
       font-size="10"
       stroke="none">
Agency
</text>
    <text
       x="16"
       y="30"
       fill="rgb(255,0,0)"
       fill-opacity="1.0"
       font-size="10"
       stroke="none"
       id="text221">
*
</text>
    <text
       x="27"
       y="30"
       fill="rgb(0,0,0)"
       fill-opacity="1.0"
       font-size="10"
       stroke="none"
       id="text223">
name
</text>
    <text
       x="16"
       y="43"
       fill="rgb(255,0,0)"
       fill-opacity="1.0"
       font-size="10"
       stroke="none"
       id="text225">
*
</text>
    <text
       x="27"
       y="43"
       fill="rgb(0,0,0)"
       fill-opacity="1.0"
       font-size="10"
       stroke="none"
       id="text227">
website
</text>
    <text
       x="16"
       y="56"
       fill="rgb(255,0,0)"
       fill-opacity="1.0"
       font-size="10"
       stroke="none"
       id="text229">
o
</text>
    <text
       x="27"
       y="56"
       fill="rgb(0,0,0)"
       fill-opacity="1.0"
       font-size="10"
       stroke="none"
       id="text231">
timezone
</text>
    <text
       x="16"
       y="69"
       fill="rgb(255,0,0)"
       fill-opacity="1.0"
       font-size="10"
       stroke="none"
       id="text233">
o
</text>
    <text
       x="27"
       y="69"
       fill="rgb(0,0,0)"
       fill-opacity="1.0"
       font-size="10"
       stroke="none"
       id="text235">
telephone
</text>
  </g>
  <g
     fill="rgb(164,225,255)"
     stroke="rgb(0,0,255)"
     fill-opacity="1.0"
     stroke-opacity="1.0"
     clip-path="url(#clipPath5_0_)"
     transform="translate(790,420)"
     id="g262">
    <rect
       x="0"
       y="0"
       width="169"
       height="109"
       rx="20"
       ry="20"
       id="rect239" />
    <text
       id="2C829267-3FFF9EE39D78"
       x="72"
       y="13"
       fill="rgb(0,0,255)"
       font-weight="bold"
       fill-opacity="1.0"
       font-size="10"
       stroke="none">
Stop
</text>
    <text
       x="16"
       y="30"
       fill="rgb(255,0,0)"
       fill-opacity="1.0"
       font-size="10"
       stroke="none"
       id="text242">
*
</text>
    <text
       x="27"
       y="30"
       fill="rgb(0,0,0)"
       fill-opacity="1.0"
       font-size="10"
       stroke="none"
       id="text244">
name
</text>
    <text
       x="16"
       y="43"
       fill="rgb(255,0,0)"
       fill-opacity="1.0"
       font-size="10"
       stroke="none"
       id="text246">
o
</text>
    <text
       x="27"
       y="43"
       fill="rgb(0,0,0)"
       fill-opacity="1.0"
       font-size="10"
       stroke="none"
       id="text248">
code
</text>
    <text
       x="16"
       y="56"
       fill="rgb(255,0,0)"
       fill-opacity="1.0"
       font-size="10"
       stroke="none"
       id="text250">
*
</text>
    <text
       x="27"
       y="56"
       fill="rgb(0,0,0)"
       fill-opacity="1.0"
       font-size="10"
       stroke="none"
       id="text252">
lat
</text>
    <text
       x="16"
       y="69"
       fill="rgb(255,0,0)"
       fill-opacity="1.0"
       font-size="10"
       stroke="none"
       id="text254">
*
</text>
    <text
       x="27"
       y="69"
       fill="rgb(0,0,0)"
       fill-opacity="1.0"
       font-size="10"
       stroke="none"
       id="text256">
lon
</text>
    <text
       x="16"
       y="82"
       fill="rgb(255,0,0)"
       fill-opacity="1.0"
       font-size="10"
       stroke="none"
       id="text258">
o
</text>
    <text
       x="27"
       y="82"
       fill="rgb(0,0,0)"
       fill-opacity="1.0"
       font-size="10"
       stroke="none"
       id="text260">
wheelchair_accessible
</text>
  </g>
</svg>
